<?xml version="1.0" standalone="no"?><!DOCTYPE svg PUBLIC "-//W3C//DTD SVG 1.1//EN" "http://www.w3.org/Graphics/SVG/1.1/DTD/svg11.dtd"><svg t="1691660598991" class="icon" viewBox="0 0 1024 1024" version="1.1" xmlns="http://www.w3.org/2000/svg" p-id="14958" xmlns:xlink="http://www.w3.org/1999/xlink" width="200" height="200"><path d="M288 320a64 64 0 0 0 0 128h448a64 64 0 0 0 0-128z m544 256H192a64 64 0 0 0 0 128h640a64 64 0 0 0 0-128zM192 192h640a64 64 0 0 0 0-128H192a64 64 0 0 0 0 128z m480 640H352a64 64 0 0 0 0 128h320a64 64 0 0 0 0-128z" fill="#231F20" p-id="14959"></path></svg>