<?xml version="1.0" standalone="no"?><!DOCTYPE svg PUBLIC "-//W3C//DTD SVG 1.1//EN" "http://www.w3.org/Graphics/SVG/1.1/DTD/svg11.dtd"><svg t="1691660464867" class="icon" viewBox="0 0 1024 1024" version="1.1" xmlns="http://www.w3.org/2000/svg" p-id="8226" xmlns:xlink="http://www.w3.org/1999/xlink" width="200" height="200"><path d="M64 866.88a215.04 215.04 0 0 0 324.8-23.68l114.24-153.6-130.56-130.56z m709.12-279.36a200.96 200.96 0 0 0-72.32 13.76L634.56 512l66.24-88.96a202.56 202.56 0 1 0-103.68-89.28L544 388.16l-155.2-207.04A215.04 215.04 0 0 0 64 157.12l533.12 533.12a202.24 202.24 0 1 0 176-103.04z m0-430.72a77.76 77.76 0 1 1-77.76 77.76 77.76 77.76 0 0 1 77.76-78.08z m0 711.04a77.76 77.76 0 1 1 77.76-77.76 77.76 77.76 0 0 1-77.76 77.44z" fill="#231F20" p-id="8227"></path></svg>