<?xml version="1.0" standalone="no"?><!DOCTYPE svg PUBLIC "-//W3C//DTD SVG 1.1//EN" "http://www.w3.org/Graphics/SVG/1.1/DTD/svg11.dtd"><svg t="1691660654701" class="icon" viewBox="0 0 1024 1024" version="1.1" xmlns="http://www.w3.org/2000/svg" p-id="17822" xmlns:xlink="http://www.w3.org/1999/xlink" width="200" height="200"><path d="M799.584 16.192c-90.528 0-148.608-16.192-241.856-16.192-301.28 0-441.792 171.584-441.792 345.888 0 102.688 48.64 136.448 144.576 136.448-6.752-14.848-18.912-31.072-18.912-104.032 0-204 76.992-263.456 175.648-267.52 0 0-80.928 793.376-315.776 888.544l0 24.672 316.608 0 108.032-512 197.856 0 44.064-128-214.912 0 51.936-246.176c59.456 12.16 117.536 24.32 167.52 24.32 62.144 0 118.88-18.912 149.952-162.112-37.824 12.16-78.368 16.192-122.944 16.192z" fill="#444444" p-id="17823"></path></svg>