<?xml version="1.0" standalone="no"?><!DOCTYPE svg PUBLIC "-//W3C//DTD SVG 1.1//EN" "http://www.w3.org/Graphics/SVG/1.1/DTD/svg11.dtd"><svg t="1691660389040" class="icon" viewBox="0 0 1024 1024" version="1.1" xmlns="http://www.w3.org/2000/svg" p-id="4298" xmlns:xlink="http://www.w3.org/1999/xlink" width="200" height="200"><path d="M869.073488 277.30677 657.110959 277.30677 657.110959 65.344241 869.073488 277.30677 869.073488 277.30677zM630.840642 303.577087 630.840642 65.344241 154.343227 65.290005l0 416.957367 714.730261 0L869.073488 303.577087 630.840642 303.577087 630.840642 303.577087zM295.004851 664.147212c-5.070482-3.063779-10.94426-5.132904-17.609053-6.201236-6.670933-1.064238-13.603833-1.600451-20.809955-1.600451l-48.821939 0 0 85.641519 48.821939 0c7.206122 0 14.140045-0.532119 20.809955-1.600451 6.664793-1.064238 12.539594-3.13234 17.609053-6.201236 5.064342-3.063779 9.134031-7.40669 12.208043-13.007245 3.064802-5.602601 4.600785-12.936637 4.600785-22.011316 0-9.070586-1.535983-16.407692-4.600785-22.010293C304.138882 671.553902 300.069193 667.216107 295.004851 664.147212L295.004851 664.147212zM35.820833 541.804816l0 416.904155 952.358333 0L988.179167 541.804816 35.820833 541.804816 35.820833 541.804816zM367.242082 732.983997c-3.599991 11.07115-9.342786 20.878516-17.20894 29.41289-7.874341 8.54256-18.077727 15.407921-30.617321 20.61041-12.543687 5.205559-27.746948 7.806803-45.621037 7.806803l-66.035996 0 0 102.449323-62.831001 0L144.927787 607.51847l128.866996 0c17.874089 0 33.07735 2.600221 45.621037 7.801686 12.540617 5.206582 22.744004 12.076036 30.617321 20.614503 7.866155 8.538467 13.603833 18.277272 17.20894 29.212322 3.601015 10.943236 5.402033 22.278399 5.402033 34.017768C372.644115 710.642153 370.843096 721.91694 367.242082 732.983997L367.242082 732.983997zM644.898823 806.417473c-5.342682 17.609053-13.407358 32.81743-24.211425 45.626153-10.807137 12.803607-24.283056 22.87908-40.423665 30.213116-16.145725 7.343245-35.154661 11.007705-57.028854 11.007705L399.973554 893.264447 399.973554 607.51847l123.261325 0c18.409279 0 35.550681 2.940982 51.427276 8.807596 15.872502 5.868661 29.617551 14.671141 41.219797 26.411533 11.608386 11.744485 20.673855 26.411533 27.216875 44.020586 6.534833 17.609053 9.803273 38.288025 9.803273 62.034868C652.901077 769.603009 650.232295 788.813536 644.898823 806.417473L644.898823 806.417473zM890.261043 660.346653 752.192478 660.346653l0 66.030879 119.66031 0 0 48.828079L752.192478 775.205611l0 118.058836-62.831001 0L689.361477 607.51847l200.900589 0L890.262066 660.346653 890.261043 660.346653zM572.060911 685.957961c-6.401804-8.266267-14.876826-14.603603-25.411763-19.009959-10.544147-4.402263-23.551392-6.602372-39.018665-6.602372L462.804555 660.34563l0 180.088588 56.029084 0c9.070586 0 17.872043-1.463328 26.415626-4.40124 8.534374-2.931772 16.140609-7.801686 22.811542-14.608719 6.664793-6.800893 12.007475-15.666818 16.007579-26.611078 4.002151-10.939143 6.002714-24.273846 6.002714-40.020482 0-14.408151-1.399883-27.415396-4.201695-39.018665C583.068615 704.166671 578.462714 694.232414 572.060911 685.957961L572.060911 685.957961zM572.060911 685.957961" fill="#272636" p-id="4299"></path></svg>