<?xml version="1.0" standalone="no"?><!DOCTYPE svg PUBLIC "-//W3C//DTD SVG 1.1//EN" "http://www.w3.org/Graphics/SVG/1.1/DTD/svg11.dtd"><svg t="1691660634695" class="icon" viewBox="0 0 1024 1024" version="1.1" xmlns="http://www.w3.org/2000/svg" p-id="16864" xmlns:xlink="http://www.w3.org/1999/xlink" width="200" height="200"><path d="M704 64 832 64 832 480C832 639.072 688.736 768 512 768 335.264 768 192 639.072 192 480L192 64 320 64 320 480C320 520.16 338.24 558.688 371.36 588.512 408.256 621.696 458.208 640 512 640 565.792 640 615.744 621.696 652.64 588.512 685.76 558.688 704 520.16 704 480L704 64ZM192 832 832 832 832 960 192 960z" fill="#000000" p-id="16865"></path></svg>